<svg width="32" height="32" viewBox="0 0 32 32" fill="none" xmlns="http://www.w3.org/2000/svg">
<g clip-path="url(#clip0_706_16238)">
<rect x="7" y="5" width="18" height="23" fill="white"/>
<path d="M11.736 11.7565C11.736 11.3151 11.736 10.3944 13.7495 10.3944H18.2459C20.2578 10.3944 20.2578 11.3282 20.2578 11.8878L20.2611 21.2039L16.6246 19.1477C16.2504 18.936 15.7926 18.936 15.4184 19.146L11.736 21.2104V11.7565Z" fill="#014745"/>
<path fill-rule="evenodd" clip-rule="evenodd" d="M22.9188 31.5898H9.07836C3.89272 31.5898 0.410461 27.945 0.410461 22.5215V9.47859C0.410461 4.055 3.89272 0.410278 9.07836 0.410278H22.9204C28.1061 0.410278 31.5899 4.055 31.5899 9.47859V22.5215C31.5899 27.945 28.1044 31.5898 22.9188 31.5898ZM9.27484 22.1655C9.27484 23.2141 10.1282 24.0675 11.1768 24.0675C11.5083 24.0675 11.8348 23.9805 12.1072 23.8246L16.0178 21.6322L19.8906 23.8213C20.803 24.3366 21.9665 24.0051 22.4834 23.0878C22.6393 22.8039 22.723 22.4839 22.723 22.1622L22.7197 11.8878C22.7197 9.41148 21.0475 7.93292 18.2463 7.93292H13.7499C10.9897 7.93292 9.27484 9.39836 9.27484 11.7565V22.1655Z" fill="#014745"/>
</g>
<defs>
<clipPath id="clip0_706_16238">
<rect width="32" height="32" fill="white"/>
</clipPath>
</defs>
</svg>
